<?xml version="1.0" encoding="UTF-8"?>
<svg id="Layer_2" data-name="Layer 2" xmlns="http://www.w3.org/2000/svg" viewBox="0 0 672.11 422.99">
  <style>
    /* Default (Light Mode) - Uses the Ink color #2C2C2C */
    .cls-1 {
      fill: #2C2C2C;
    }
    /* Dark Mode - Uses the Paper color #F6F6F8 */
    @media (prefers-color-scheme: dark) {
      .cls-1 {
        fill: #F6F6F8;
      }
    }
  </style>
  <g id="Isolation_Mode" data-name="Isolation Mode">
    <path class="cls-1" d="M603.51,1.25v344.76c-.41-.72-.78-1.39-1.08-1.94-.57-1.04-1.11-2.02-1.66-2.94-26.39-43.56-49.85-92.15-72.54-139.14-23.43-48.54-47.67-98.73-75.3-143.79-18.44-30.08-44.03-49.39-74-55.86-26.68-5.76-54.88-.87-79.39,13.76-24.67,14.72-42.43,37.41-50,63.88-8.52,29.79-3.48,61.99,14.58,93.1,8.02,13.82,23.78,32.22,40.46,51.69,23.36,27.27,49.83,58.17,53.01,75.28,3.73,20.09-4.47,39.08-20.9,48.39-15.04,8.52-32.42,6.29-46.65-5.95-34.3-52.18-62.94-110.2-90.65-166.31-21.06-42.66-42.83-86.76-66.92-127.94C114.58,17.63,98.46-3.66,53.72,1.28c-12.99,1.43-26.49,8.9-37.03,20.48C6.08,33.41,0,47.56,0,60.59v362.35h68.6V76.21c27.08,42.01,50.52,92.04,73.2,140.41,25.15,53.66,51.16,109.14,82.49,154.66,25.5,37.05,59.14,51.67,91.22,51.67,21.58,0,42.45-6.62,59.64-17.47,44.05-27.79,73.42-89.03,33.77-157.81-9.49-16.47-25.58-34.86-42.62-54.33-21.52-24.6-43.78-50.04-49.92-69.43-7.65-24.18,4.99-42.74,20.92-50.41,14.81-7.13,37.93-6.8,54.35,17.64,31.18,46.42,57.86,102.38,83.66,156.49,22.21,46.59,45.18,94.77,71,136.8,12.31,20.05,29.71,33.3,48.97,37.31,3.99.83,7.99,1.24,11.99,1.24,12.78,0,25.49-4.22,37.3-12.47,12.4-8.66,27.55-32.02,27.55-46.92V1.25h-68.6Z"/>
  </g>
</svg>